<svg xmlns="http://www.w3.org/2000/svg" width="23" height="23" viewBox="0 0 23 23">
  <g id="_002-candidates" data-name="002-candidates" transform="translate(0 0)">
    <path id="Path_39" data-name="Path 39" d="M182.053,4.195l-.26,1.514a.674.674,0,0,0,.978.71L184.13,5.7l1.359.715a.673.673,0,0,0,.314.077h0a.674.674,0,0,0,.656-.824l-.253-1.477,1.1-1.072a.674.674,0,0,0-.373-1.149l-1.519-.221-.68-1.377a.674.674,0,0,0-1.208,0l-.68,1.377-1.52.221a.674.674,0,0,0-.373,1.149Z" transform="translate(-172.63)" fill="#43afff"/>
    <path id="Path_40" data-name="Path 40" d="M374.169,369.994a5.263,5.263,0,0,1-4.626,1.082,5.962,5.962,0,0,1,.379,2.1v.722a3.808,3.808,0,0,1-.914,2.478h3.945a2.481,2.481,0,0,0,2.478-2.478v-.722A4.627,4.627,0,0,0,374.169,369.994Z" transform="translate(-352.431 -353.373)" fill="#43afff"/>
    <path id="Path_41" data-name="Path 41" d="M172.621,200.643a3.922,3.922,0,1,0-3.922-3.922A3.926,3.926,0,0,0,172.621,200.643Z" transform="translate(-161.121 -184.139)" fill="#43afff"/>
    <path id="Path_42" data-name="Path 42" d="M354.938,200.643a3.922,3.922,0,1,0-2.526-6.919,5.257,5.257,0,0,1,0,6A3.9,3.9,0,0,0,354.938,200.643Z" transform="translate(-336.581 -184.139)" fill="#43afff"/>
    <path id="Path_43" data-name="Path 43" d="M19.988,200.644a3.9,3.9,0,0,0,2.526-.924,5.257,5.257,0,0,1,0-6,3.921,3.921,0,1,0-2.526,6.919Z" transform="translate(-15.344 -184.14)" fill="#43afff"/>
    <path id="Path_44" data-name="Path 44" d="M157.276,371.225a5.245,5.245,0,0,1-3.381-1.231,4.627,4.627,0,0,0-1.262,3.179v.722a2.481,2.481,0,0,0,2.478,2.478h4.33a2.481,2.481,0,0,0,2.478-2.478v-.722a4.626,4.626,0,0,0-1.262-3.179A5.245,5.245,0,0,1,157.276,371.225Z" transform="translate(-145.776 -353.373)" fill="#43afff"/>
    <path id="Path_45" data-name="Path 45" d="M5.509,373.174a5.962,5.962,0,0,1,.379-2.1,5.263,5.263,0,0,1-4.626-1.082A4.626,4.626,0,0,0,0,373.174v.722a2.481,2.481,0,0,0,2.478,2.478H6.423a3.808,3.808,0,0,1-.915-2.478Z" transform="translate(0 -353.374)" fill="#43afff"/>
  </g>
</svg>
