<svg xmlns="http://www.w3.org/2000/svg" width="24" height="23" viewBox="0 0 24 23">
  <g id="_001-research" data-name="001-research" transform="translate(0 -1)">
    <path id="Path_35" data-name="Path 35" d="M3.6,4.6a4.5,4.5,0,0,1,8.81,0c-.01,0-.03.01-.04.01-1.68.45-2.77-1.38-2.81-1.46a.508.508,0,0,0-.78-.11A6.658,6.658,0,0,1,3.6,4.6Z" fill="#fff"/>
    <path id="Path_36" data-name="Path 36" d="M9.03,4.14A7.674,7.674,0,0,1,3.51,5.6a4.491,4.491,0,0,0,8.98,0A3.42,3.42,0,0,1,9.03,4.14Z" fill="#fff"/>
    <path id="Path_37" data-name="Path 37" d="M23.78,22.72l-2.767-2.767A4.951,4.951,0,0,0,22,17a5,5,0,1,0-5,5,4.951,4.951,0,0,0,2.953-.987L22.72,23.78a.75.75,0,1,0,1.06-1.06ZM13.5,17A3.5,3.5,0,1,1,17,20.5,3.5,3.5,0,0,1,13.5,17Z" fill="#fff"/>
    <path id="Path_38" data-name="Path 38" d="M10.5,17a6.484,6.484,0,0,1,2.292-4.945C12.614,12.029,3.75,12,3.75,12A3.754,3.754,0,0,0,0,15.75v3.5A.75.75,0,0,0,.75,20H11.24A6.452,6.452,0,0,1,10.5,17Z" fill="#fff"/>
  </g>
</svg>
